<?xml version="1.0" standalone="no"?>
<!DOCTYPE svg PUBLIC "-//W3C//DTD SVG 20010904//EN"
 "http://www.w3.org/TR/2001/REC-SVG-20010904/DTD/svg10.dtd">
<svg version="1.0" xmlns="http://www.w3.org/2000/svg"
 width="1081.000000pt" height="1080.000000pt" viewBox="0 0 1081.000000 1080.000000"
 preserveAspectRatio="xMidYMid meet">

<g transform="translate(0.000000,1080.000000) scale(0.100000,-0.100000)"
fill="#000000" stroke="none">
<path d="M0 5400 l0 -5400 5405 0 5405 0 0 5400 0 5400 -5405 0 -5405 0 0
-5400z m6053 2900 l1597 0 0 -535 0 -536 -1057 1 c-582 1 -1421 1 -1865 0
l-808 0 0 -1865 0 -1865 -535 0 -535 0 0 2407 0 2406 803 -6 c441 -4 1521 -7
2400 -7z m-378 -1830 c299 -43 535 -250 615 -540 108 -395 -124 -798 -526
-912 -101 -28 -265 -30 -369 -4 -262 67 -470 273 -542 536 -24 89 -24 281 0
370 56 210 203 388 392 480 146 71 276 92 430 70z m-507 -3664 c56 -123 102
-226 102 -230 0 -3 -17 -6 -37 -6 -32 0 -41 5 -55 30 l-17 30 -103 0 -103 0
-17 -30 c-15 -26 -23 -30 -57 -30 l-40 0 18 43 c10 23 45 98 76 167 32 69 70
153 86 188 15 34 32 62 37 62 5 0 55 -101 110 -224z m1510 204 c37 -17 42 -22
33 -38 -19 -36 -39 -46 -67 -33 -38 17 -105 13 -141 -9 -43 -26 -67 -74 -67
-135 0 -92 61 -155 151 -155 51 0 73 20 73 65 0 34 0 34 -52 37 l-53 3 -3 38
-3 37 95 0 96 0 0 -105 0 -106 -52 -24 c-175 -82 -353 44 -335 237 14 160 178
255 325 188z m827 -15 c124 -77 140 -273 30 -374 -51 -47 -108 -65 -186 -58
-63 5 -102 23 -143 63 -49 50 -61 82 -61 170 0 72 3 86 30 129 22 36 45 57 85
78 49 25 63 28 126 25 58 -3 80 -9 119 -33z m-4315 -10 l0 -34 -102 -3 -103
-3 -3 -67 -3 -67 83 -3 83 -3 3 -29 c5 -39 -10 -46 -95 -46 l-73 0 0 -80 0
-80 -40 0 -40 0 0 225 0 225 145 0 145 0 0 -35z m480 -190 l0 -225 -40 0 -40
0 0 225 0 225 40 0 40 0 0 -225z m667 200 c134 -62 162 -244 54 -355 -55 -58
-93 -70 -213 -70 l-88 0 0 225 0 225 98 0 c82 0 105 -4 149 -25z m1415 -162
l3 -188 103 -3 102 -3 0 -34 0 -35 -145 0 -145 0 0 225 0 225 40 0 40 0 2
-187z"/>
<path d="M5022 2783 l-32 -68 61 -3 c34 -2 64 -1 67 2 6 6 -50 135 -59 136 -3
0 -20 -30 -37 -67z"/>
<path d="M7300 2931 c-50 -27 -73 -62 -77 -123 -6 -70 19 -115 77 -145 54 -28
92 -29 148 -3 33 15 47 29 62 62 26 56 25 94 -2 148 -39 75 -132 102 -208 61z
m107 -103 c29 -27 29 -36 1 -65 -27 -29 -36 -29 -65 -1 -29 27 -29 36 -1 65
27 29 36 29 65 1z"/>
<path d="M4178 2944 c-5 -4 -8 -72 -8 -151 l0 -143 53 0 c64 0 107 24 130 73
34 72 12 164 -49 199 -34 20 -115 34 -126 22z"/>
</g>
</svg>
